<?xml version="1.0" encoding="utf-8"?>
<!-- Generator: Adobe Illustrator 21.1.0, SVG Export Plug-In . SVG Version: 6.00 Build 0)  -->
<!DOCTYPE svg PUBLIC "-//W3C//DTD SVG 1.1//EN" "http://www.w3.org/Graphics/SVG/1.1/DTD/svg11.dtd">
<svg version="1.1" id="Layer_1" xmlns="http://www.w3.org/2000/svg" xmlns:xlink="http://www.w3.org/1999/xlink" x="0px" y="0px"
	 viewBox="0 0 612 273" style="enable-background:new 0 0 612 273;" xml:space="preserve">
<style type="text/css">
	.st0{fill:#F04A40;}
</style>
<g>
	<path class="st0" d="M119.2,172.4c0-19.4-14.5-25.7-43.3-33.9C47.6,130.5,26,119.3,26,84c0-26.2,19.4-50.8,55.5-50.8
		c21.5,0,33.7,7.3,41.7,7.3c4,0,5.1-1.6,6.8-4.7h2.6l1.6,47.3h-3.7c-11.9-21.5-27.8-44.9-51.9-44.9c-16.8,0-28.5,9.8-28.5,23.6
		c0,17.3,15.9,23.2,39.5,29.5c26,7,54.8,15.9,54.8,54.8c0,33.7-22.9,55.9-57.3,55.9c-22.7,0-42.4-7-48.9-7c-3.7,0-5.1,2.6-7,7h-3.3
		l-2.3-55.7h4C41,169.6,63.7,197,89.4,197C103.5,197,119.2,189.5,119.2,172.4z"/>
	<path class="st0" d="M226.1,106.6c5.1-11.7,14-20.8,32.3-20.8c26.2,0,42.4,18.5,42.4,58.3c0,40-16.4,57.8-48.2,57.8
		c-15.9,0-21.8-4.2-26-11.5V251h30.2v4.2h-86.6V251H183V92.4h-12.4v-4.2h55.5V106.6z M226.6,128.2V171c0,12.6,4.9,24.1,15.2,24.1
		c11.5,0,13.8-13.8,13.8-46.3v-12.2c0-33-2.8-40.7-10.8-40.7C235.2,95.9,226.6,107.8,226.6,128.2z"/>
	<path class="st0" d="M378.2,24v171.3h13.1v4.2h-69.5v-4.2h12.9V28.3h-13.8V24H378.2z"/>
	<path class="st0" d="M466.2,88.2v107.2h13.1v4.2h-69.5v-4.2h12.9v-103h-13.8v-4.2H466.2z M445.1,28.5c14.5,0,23.2,7.3,23.2,21.5
		c0,12.4-6.8,22-23.6,22c-19,0-23.4-11.9-23.4-21.8C421.3,38.8,427.6,28.5,445.1,28.5z"/>
	<path class="st0" d="M509.7,92.4h-12.9v-4.2h12.9V58l43.5-10.8v40.9h30.4v4.2h-30.4v78.9c0,13.8,2.1,21.3,10.3,21.3
		c11.2,0,18.3-10.3,20.4-26.2l4,0.5c-2.1,18.3-9.8,35.1-38.4,35.1c-23.2,0-39.8-6.8-39.8-35.8V92.4z"/>
</g>
</svg>
